<svg xmlns="http://www.w3.org/2000/svg" xmlns:xlink="http://www.w3.org/1999/xlink" id="Contours" x="0px" y="0px" width="822.360352px" height="822.360352px" viewBox="0.000055 0.000013 822.360352 1649.359009" xml:space="preserve" stroke="black" fill="none" stroke-linecap="round" stroke-linejoin="round"><path class="selected" fill="#000000" opacity="1.000000" stroke="none" d="M120.207831 738.372118 C111.541205 716.297900 102.923773 695.203051 94.181585 674.160204 C90.991766 666.482226 87.410834 658.967333 84.171332 651.309252 C76.133490 632.308153 68.298163 613.220751 60.180609 594.254076 C49.603460 569.540453 45.799994 542.896654 37.902289 517.458910 C33.292914 502.612475 30.136419 487.436693 25.560736 472.616503 C22.676092 463.274096 20.800360 453.723681 19.960028 443.849413 C19.268011 435.717760 18.877508 427.460070 16.504584 419.390795 C14.722967 413.332079 14.785101 406.706957 14.236029 400.315966 C13.458807 391.269274 13.259955 382.156969 12.115790 373.161486 C10.476996 360.278673 7.987616 347.504931 6.301581 334.627001 C5.469061 328.268847 5.770697 321.892870 4.555975 315.404589 C2.594061 304.924364 2.349920 294.026903 2.299017 283.301256 C2.083685 237.973681 2.262152 192.644274 2.114569 147.316149 C2.101385 143.265063 3.973944 138.742235 0.276678 135.076159 C-0.223200 134.580492 0.077582 133.125780 0.227484 132.148913 C2.197821 119.307604 3.938543 106.422839 6.283880 93.649462 C8.602118 81.024828 10.842962 68.310961 14.419867 56.015124 C17.502264 45.419176 22.359320 35.332751 26.544134 25.066881 C28.984686 19.079333 31.909247 13.277758 34.121161 7.212023 C35.768377 2.694506 38.237860 0.618395 43.255194 0.253405 C61.813543 -1.096632 79.448919 3.139025 96.931585 8.413988 C106.092352 11.178026 115.223456 14.103625 124.186102 17.444262 C135.436102 21.637316 146.629339 26.036791 157.611273 30.881518 C171.708319 37.100512 185.870428 43.287401 199.461981 50.509203 C218.090399 60.407336 235.768988 72.157214 254.660467 81.480578 C277.267035 92.637255 295.172064 110.261156 316.075506 123.711596 C322.678900 127.960619 327.089789 135.609240 332.531683 141.677233 C333.642645 142.916003 334.924383 144.000841 336.049994 145.227648 C350.672430 161.163256 365.627997 176.812426 379.745062 193.184435 C386.702215 201.253039 392.335272 210.513354 398.150946 219.503954 C405.945135 231.553637 413.208319 243.945666 420.924750 256.046984 C438.754950 284.009142 456.628241 311.944811 474.677801 339.765551 C481.699530 350.588854 489.543280 360.882067 496.484686 371.753771 C509.923407 392.801989 522.632147 414.322375 536.312811 435.208605 C548.773749 454.232714 559.065985 474.438036 570.246405 494.164599 C583.415106 517.398730 597.001043 540.396410 610.160956 563.635424 C618.246161 577.912768 625.683661 592.556811 633.753973 606.843066 C643.685614 624.424120 654.471991 641.538500 663.954657 659.352099 C672.057440 674.573534 678.866522 690.485155 686.200018 706.114184 C693.008368 720.623705 699.010321 735.569750 706.693182 749.597460 C719.320379 772.653002 730.008368 796.650072 741.950262 820.031908 C749.340155 834.501513 754.347723 850.206103 760.166083 865.454882 C765.329901 878.987597 770.127752 892.659594 775.102850 906.264452 C783.464911 929.131029 791.982000 951.942309 800.152655 974.877001 C804.814276 987.962328 809.272284 1001.143236 813.144354 1014.477953 C815.499823 1022.589403 817.166571 1031.009569 818.091864 1039.406786 C820.591375 1062.099657 823.286200 1084.850268 822.050604 1107.721361 C821.469305 1118.482714 819.365790 1129.178271 817.642889 1139.853808 C816.903143 1144.438158 814.807684 1148.833422 814.304999 1153.421679 C811.907293 1175.315600 802.634344 1195.402148 797.643133 1216.643725 C795.126288 1227.353442 786.750555 1236.702441 780.931219 1246.612353 C778.715887 1250.385302 776.368719 1254.095263 773.863348 1257.681322 C758.486151 1279.691454 739.970038 1298.405688 717.020331 1312.668871 C703.399481 1321.134081 703.365301 1322.885912 707.446356 1338.774584 C709.716864 1347.614184 710.336737 1356.864794 712.280096 1365.804125 C715.681219 1381.447069 716.568915 1397.562304 721.584295 1412.919482 C723.234686 1417.973681 723.446600 1423.510668 724.193670 1428.844164 C725.983954 1441.621996 727.834784 1454.358202 731.486639 1466.808153 C733.078436 1472.235888 733.298651 1478.060351 734.216131 1483.692675 C736.859686 1499.923388 739.230780 1516.206835 742.297186 1532.357714 C745.214422 1547.720995 749.777655 1562.816943 751.938788 1578.265185 C753.880194 1592.142626 753.936102 1606.335253 754.065252 1620.395800 C754.147772 1629.379687 743.931219 1641.530810 735.415106 1644.410693 C732.800604 1645.294726 730.269110 1646.501757 727.825262 1647.797411 C722.514715 1650.613085 716.952459 1648.940966 711.780096 1648.024218 C709.574530 1647.633593 707.108709 1643.677050 706.370917 1640.911425 C703.315252 1629.454394 700.843573 1617.840624 698.216864 1606.270800 C695.794500 1595.600390 693.410956 1584.921435 691.079413 1574.231005 C688.744452 1563.523485 686.550848 1552.784472 684.192206 1542.082323 C681.838690 1531.405566 679.268133 1520.776415 676.961004 1510.089892 C675.238104 1502.108446 673.788153 1494.068163 672.206366 1486.056200 C670.016913 1474.965624 667.924872 1463.854296 665.596014 1452.792773 C662.566717 1438.404833 659.461737 1424.030566 656.174139 1409.699633 C653.108221 1396.333544 649.699286 1383.046313 646.573553 1369.693529 C645.569159 1365.402514 644.854315 1361.031420 644.238836 1356.664110 C643.333807 1350.241381 641.574774 1348.508837 634.748114 1348.398852 C627.417547 1348.280688 620.073065 1348.621996 612.752752 1348.323046 C594.455633 1347.575854 576.172186 1347.192309 558.201239 1342.529467 C544.847723 1339.064501 531.017889 1337.461474 517.603338 1334.195483 C510.796209 1332.538378 504.106024 1329.639696 497.948065 1326.241991 C486.567450 1319.962450 474.081366 1315.852343 463.313543 1308.441820 C458.359076 1305.031908 453.354559 1301.642992 448.736639 1297.806322 C439.013128 1289.727953 428.812811 1282.044482 420.129095 1272.939257 C409.242010 1261.523485 400.501288 1248.018847 389.343939 1236.912890 C374.410589 1222.047900 367.000799 1202.791552 356.440008 1185.405932 C343.223700 1163.649096 330.733709 1141.442675 318.269964 1119.239672 C309.942938 1104.405566 302.424017 1089.118944 294.155829 1074.250414 C282.543036 1053.367358 270.216253 1032.875780 258.861639 1011.856493 C249.475409 994.481127 240.989691 976.616259 232.226996 958.907885 C224.017645 942.317675 216.654120 925.269335 207.714789 909.087572 C184.993597 867.958422 165.100897 825.428149 144.121893 783.433153 C136.658026 768.492602 128.207831 754.044848 120.207831 738.372118 M521.207831 956.372118 C518.207831 949.949877 515.065252 943.589526 512.236883 937.092577 C505.723700 922.132006 499.219793 907.163500 493.033026 892.066820 C491.318670 887.883837 489.234442 885.821825 484.483221 886.294482 C477.433417 886.995898 470.426459 886.714281 463.260443 887.999682 C451.790228 890.057177 439.891424 890.171679 428.167547 890.257738 C412.439154 890.373217 396.748602 890.533861 380.975775 888.699511 C367.255804 887.104052 353.425970 887.863085 339.610785 884.700732 C322.032660 880.677050 303.875311 879.239672 286.033514 876.289110 C276.787665 874.760058 267.600653 872.686816 258.536810 870.292528 C247.168036 867.289721 235.976263 863.621752 224.647284 860.458910 C222.873480 859.963671 220.777167 860.623949 218.830023 860.749926 C219.357489 862.358935 219.719061 864.046679 220.440497 865.563525 C224.149237 873.361010 227.994818 881.093432 231.709540 888.888232 C238.339667 902.800585 244.773993 916.807665 251.533636 930.656298 C266.283392 960.873949 281.291815 990.965624 295.935370 1021.234179 C298.815741 1027.187914 303.123968 1030.584887 309.208197 1032.398485 C315.127630 1034.162890 320.942938 1036.279955 326.873846 1038.001147 C339.080267 1041.543261 351.336004 1044.914965 363.566351 1048.374682 C377.998358 1052.457201 392.548651 1055.882372 407.277289 1058.868822 C419.454901 1061.338061 431.638617 1062.965380 443.912054 1064.342943 C451.281927 1065.169848 458.768744 1065.218554 466.053412 1066.480639 C478.435614 1068.625902 490.805731 1070.443041 503.401434 1070.379320 C511.065252 1070.340502 518.737616 1070.161669 526.389959 1070.461962 C530.132635 1070.608813 534.385077 1073.196459 537.450506 1072.072192 C544.577215 1069.457934 551.652655 1070.802416 558.726385 1070.409228 C566.077948 1070.000414 567.228827 1068.747362 564.550116 1061.788500 C557.914374 1044.548998 551.127020 1027.365282 544.174627 1010.251025 C536.991034 992.568285 529.541083 974.993944 521.207831 956.372118 M246.207831 349.372118 C249.036810 354.867785 251.621283 360.511462 254.814154 365.786913 C256.107367 367.923693 258.178778 371.491320 260.475287 365.444628 C262.320501 360.585497 266.195257 356.435534 269.446356 352.182726 C282.810614 334.700243 296.214667 317.247179 309.728338 299.880053 C328.432806 275.842211 342.717108 249.035448 358.276312 223.018481 C361.224798 218.088183 360.291205 214.156664 356.984808 210.143053 C350.846991 202.692431 344.846380 195.124804 338.573431 187.789965 C329.493353 177.172655 320.467596 166.489367 310.934881 156.286120 C305.622015 150.599352 299.258246 145.905749 293.495184 140.625780 C284.049750 131.972277 274.838812 123.058337 265.262518 114.554369 C261.015570 110.782946 256.243353 107.555407 251.495184 104.403857 C227.661810 88.584704 202.342718 75.391344 177.074896 62.064623 C162.330877 54.288317 147.588812 47.372668 130.583685 46.230212 C123.413885 45.748522 116.243231 44.102709 109.269720 42.247057 C103.648871 40.751330 98.420355 37.828356 92.839300 36.122301 C87.474432 34.482348 81.914496 33.372057 76.365423 32.511462 C74.782293 32.265917 71.952704 33.295702 71.469305 34.470751 C70.893622 35.870043 71.777044 38.379443 72.823187 39.837511 C75.630926 43.750902 79.191473 47.138903 81.872259 51.126147 C98.897040 76.447863 113.764227 103.063647 128.129461 129.938647 C140.506415 153.093371 151.979315 176.730395 164.278875 199.927721 C174.438055 219.088000 185.334295 237.856005 195.685003 256.916674 C201.580755 267.773791 206.827582 278.983630 212.738470 289.832018 C223.414618 309.425524 234.369452 328.867113 246.207831 349.372118 M575.207831 1060.372118 C580.874579 1073.683642 587.011297 1086.818529 592.096747 1100.348559 C599.582342 1120.263720 606.761542 1140.319750 613.221747 1160.586352 C617.730536 1174.730395 623.270086 1188.515673 626.468084 1203.163866 C629.523260 1217.157763 634.277167 1230.733691 636.411200 1245.047289 C638.057928 1256.094408 641.813299 1266.810351 644.131415 1277.779101 C646.477118 1288.877367 647.186590 1300.410937 650.416815 1311.214281 C657.477606 1334.826952 662.858709 1358.818896 668.098456 1382.842821 C671.987127 1400.673998 674.656805 1418.767626 678.288153 1436.659228 C680.517645 1447.643725 683.770575 1458.417284 686.140204 1469.377245 C689.059637 1482.883593 691.693915 1496.457323 694.162420 1510.054491 C696.421698 1522.501757 698.048163 1535.065478 700.402655 1547.493212 C703.437323 1563.511767 706.860907 1579.458300 710.231024 1595.411669 C712.103583 1604.276415 713.968084 1613.156054 716.286932 1621.909472 C718.010077 1628.415087 719.706366 1629.431200 725.512518 1628.315722 C729.985663 1627.456347 733.183905 1624.729784 734.141913 1620.114306 C734.539862 1618.196825 733.658270 1615.930956 734.294256 1614.159228 C739.739081 1598.995898 734.403143 1583.978075 733.546454 1568.971972 C733.015448 1559.667528 730.017889 1550.510790 728.222235 1541.269579 C726.481024 1532.309130 724.983465 1523.300585 723.156073 1514.358691 C720.963202 1503.628710 718.436102 1492.967089 716.235174 1482.238573 C713.961493 1471.155077 712.028875 1460.001147 709.720038 1448.925463 C707.359442 1437.602099 704.616034 1426.358568 702.243963 1415.037401 C700.565741 1407.027758 699.449042 1398.897997 697.680731 1390.910448 C695.212958 1379.764208 691.866522 1368.818407 692.152899 1357.187304 C692.412665 1346.626879 690.510565 1336.424853 685.739569 1326.866503 C685.056463 1325.498217 684.534979 1323.996386 684.238592 1322.497118 C683.017645 1316.320483 682.595282 1309.894945 680.635565 1303.972582 C675.115545 1287.290575 668.858709 1270.853930 663.143377 1254.234179 C660.527655 1246.628466 657.722235 1238.951220 656.396551 1231.071947 C654.565497 1220.190600 654.105047 1209.065600 650.157049 1198.608935 C649.324774 1196.405077 648.346258 1193.425829 646.576239 1192.560595 C640.962469 1189.816820 639.886297 1185.199877 640.277655 1179.909228 C640.646551 1174.924242 639.895575 1171.279345 634.404120 1169.329882 C631.621649 1168.341845 630.009588 1165.835375 632.058905 1161.967943 C634.502020 1157.356982 633.452459 1153.073901 629.847235 1148.590868 C626.899725 1144.925341 625.414129 1139.742358 624.318426 1134.992602 C620.891668 1120.140185 616.496649 1105.700121 609.158514 1092.246508 C607.844061 1089.836596 607.197088 1087.066210 606.203192 1084.477099 C603.884833 1078.438036 602.534491 1071.693041 598.874579 1066.616259 C596.269842 1063.003222 588.282782 1062.591601 586.785956 1059.032152 C584.959784 1054.689745 588.123846 1048.504931 587.809637 1043.194994 C587.521795 1038.329882 585.659735 1033.511401 584.172674 1028.772387 C580.200995 1016.117846 578.430731 1002.666308 570.433172 991.440600 C569.072821 989.531176 568.902411 986.766772 568.210760 984.389086 C565.614813 975.463671 562.060125 966.679735 560.699530 957.568774 C559.158026 947.245898 548.601385 941.181078 549.098700 930.292528 C549.108954 930.068041 548.637030 929.839892 548.425604 929.584154 C545.962225 926.606615 545.304999 922.894213 543.916327 919.450854 C539.083075 907.467699 535.347235 895.040453 528.413153 883.834276 C523.264959 875.513964 519.970526 866.041552 515.906073 857.057299 C511.969549 848.356249 508.378973 839.485888 504.117254 830.949145 C500.929754 824.564013 496.498846 818.796435 493.352362 812.394701 C485.328924 796.070971 477.703680 779.551073 469.958685 763.091112 C469.348578 761.794848 468.340399 759.397631 468.707831 759.126757 C472.724676 756.165209 468.672064 753.531298 467.923651 751.584032 C466.607855 748.159472 463.659247 745.308520 461.189520 742.390795 C449.957098 729.120043 443.200995 713.293261 436.408148 697.644335 C432.089667 687.695360 430.684027 676.770068 422.394964 668.346972 C414.290472 660.111132 411.672064 648.185107 403.160101 639.311816 C394.659491 630.450365 389.122870 618.044482 384.554510 606.309618 C380.004828 594.622362 372.676825 585.120043 365.919500 575.009692 C356.520941 560.947924 346.571844 547.152880 338.436468 532.374926 C329.331000 515.834399 321.361029 498.748461 307.978949 484.976244 C306.137152 483.080859 304.084295 479.860522 304.441717 477.622973 C306.004584 467.838671 301.753973 461.170214 294.489325 455.585619 C293.523504 454.843066 292.787787 453.663500 292.235541 452.543261 C288.689398 445.349901 285.294867 438.081469 281.712958 430.906359 C277.862005 423.192492 272.480902 416.616137 267.248358 409.769091 C259.603949 399.765856 254.404608 387.888232 248.215277 376.780443 C240.974188 363.784777 233.787542 350.758776 226.580389 337.744128 C217.121283 320.662890 207.508856 303.664049 198.268377 286.465380 C193.013006 276.683886 188.690008 266.398547 183.370550 256.654894 C175.931585 243.029284 167.800604 229.783190 160.258124 216.212145 C154.552191 205.945238 149.489447 195.321337 143.808172 185.039965 C135.254461 169.560412 126.307562 154.298388 117.719916 138.837206 C109.751776 124.491381 102.581488 109.672777 94.050726 95.677538 C85.870550 82.257616 76.531805 69.530260 67.429266 56.692004 C62.808905 50.175585 57.667059 44.018969 52.543280 37.881396 C51.857855 37.060351 49.185248 36.646288 48.663519 37.201159 C47.580267 38.352953 46.477362 40.550280 46.886542 41.840929 C48.088812 45.632616 49.750921 49.348070 51.722601 52.814867 C62.469793 71.710863 73.350409 90.531298 84.212103 109.361986 C93.524969 125.507311 103.067206 141.523791 112.161566 157.790942 C125.010931 180.774706 137.538275 203.938464 150.208685 227.022387 C161.537909 247.662951 172.827093 268.325671 184.220038 288.931017 C198.169256 314.159411 212.162420 339.363695 226.222845 364.530199 C236.813910 383.486986 247.389349 402.455248 258.248724 421.258471 C270.068548 441.724657 282.359076 461.919237 294.162054 482.394945 C304.382391 500.125292 314.328802 518.016894 324.177557 535.957201 C336.693060 558.755541 349.102850 581.613695 361.345038 604.559740 C373.280462 626.930590 384.934515 649.451586 396.735663 671.894091 C406.379828 690.234423 416.492743 708.344530 425.575750 726.957812 C432.076727 740.280077 442.520697 751.587817 445.621527 766.663744 C446.352606 770.218432 448.179754 773.594897 449.791693 776.912890 C457.207709 792.178759 464.950384 807.289599 472.153631 822.653979 C482.094305 843.857348 491.635809 865.247485 501.386053 886.540453 C508.186590 901.391405 515.410711 916.060107 521.799627 931.084887 C531.318670 953.470995 540.273016 976.097338 549.458807 998.625170 C557.714422 1018.871752 565.958563 1039.122973 575.207831 1060.372118 M161.207831 390.372118 C168.592108 391.038805 175.966498 392.098681 183.362860 392.284472 C196.008856 392.602160 208.668646 392.422961 221.322210 392.348559 C226.836004 392.316027 227.532538 391.330920 224.958685 386.205187 C219.968695 376.267748 214.880560 366.366503 209.436224 356.673144 C198.501043 337.203783 187.124457 317.981432 176.273871 298.465868 C169.825995 286.869006 164.246893 274.791247 157.894720 263.138293 C148.849920 246.545580 139.344671 230.204394 130.245550 213.640612 C123.998724 202.268908 118.256903 190.619921 112.023138 179.240710 C102.202337 161.313525 92.177679 143.497851 82.197455 125.658373 C78.563177 119.162340 74.932928 112.658617 71.085150 106.288622 C61.746405 90.828722 52.283514 75.443713 42.861517 60.034106 C42.194769 58.943529 41.454779 57.897692 40.748968 56.831042 C39.901922 58.145190 38.553290 59.369311 38.298407 60.789660 C37.398993 65.799731 36.739813 70.863634 36.233709 75.931444 C34.826117 90.023608 34.220038 104.239367 31.933539 118.182604 C30.712469 125.629259 31.659857 133.300463 29.807074 140.269396 C28.148626 146.507494 28.834295 152.473009 28.200750 158.527636 C27.567084 164.581835 26.163885 170.648913 26.324408 176.677660 C27.291937 213.027636 24.340033 249.396410 27.965277 285.765551 C29.982367 306.000658 29.730047 326.477404 30.088568 346.852465 C30.191351 352.693102 32.787909 356.173876 37.617132 358.331225 C46.886297 362.471911 56.151068 366.666430 65.633246 370.271471 C72.265448 372.792956 79.218451 374.513659 86.095160 376.339220 C96.612250 379.131274 107.086126 382.254504 117.765570 384.219775 C128.741888 386.239611 139.951117 386.973742 151.039374 388.418017 C153.800238 388.777636 156.487005 389.705431 161.207831 390.372118 M668.207831 717.372118 C666.321600 714.152636 664.761297 710.677294 662.477850 707.769823 C658.433172 702.619677 655.893622 702.952441 652.199774 708.396288 C642.465643 722.742358 633.505926 737.558153 622.664129 751.219897 C606.689276 771.349413 592.221258 792.669237 576.428045 812.950121 C563.553045 829.483568 549.606512 845.179613 536.285956 861.371020 C532.259100 866.265795 530.330877 871.413256 534.064764 877.915209 C537.882391 884.562548 540.776190 891.777880 543.681219 898.904833 C552.282049 920.005785 560.846991 941.124193 569.129950 962.351244 C578.982977 987.602831 588.523260 1012.976488 598.233954 1038.283861 C598.530096 1039.055834 599.127752 1040.141894 599.736639 1040.253466 C600.476385 1040.388720 601.775702 1039.876757 602.145575 1039.243334 C605.584051 1033.353319 608.703436 1027.272875 612.240057 1021.444872 C622.717352 1004.178026 633.651434 987.223681 642.746405 969.100634 C650.117254 954.413012 659.351385 940.673144 667.231512 926.225024 C675.366034 911.311205 682.766180 895.998461 690.682928 880.962939 C694.337713 874.022021 698.105780 867.297900 698.388250 859.085131 C698.474920 856.562426 700.469305 853.956469 702.006170 851.668261 C704.138250 848.494189 706.984930 845.779345 708.960272 842.524828 C715.497381 831.755785 716.783270 819.614428 712.718329 808.315234 C706.896063 792.131029 699.268377 776.549242 691.721747 761.046191 C684.685858 746.593310 676.748358 732.579272 668.207831 717.372118 M666.207831 1229.372118 C666.207831 1230.039599 666.039374 1230.760546 666.232245 1231.366625 C671.851385 1249.024584 677.386297 1266.710741 683.208075 1284.301928 C685.915594 1292.482592 688.875311 1300.612963 692.320379 1308.504198 C694.562079 1313.639208 695.846747 1313.587084 699.972967 1309.575854 C704.750067 1304.932177 709.410956 1300.168993 714.122137 1295.457812 C723.268622 1286.311327 733.787176 1278.153246 741.248846 1267.793139 C753.247870 1251.133105 764.389715 1233.610888 773.702704 1215.336230 C781.507391 1200.021166 786.789862 1183.467333 790.661444 1166.342333 C794.246161 1150.487109 794.954168 1134.382616 797.985907 1118.540942 C799.487372 1110.696215 799.053778 1102.467699 799.846502 1094.390917 C802.099920 1071.440111 799.500799 1048.664233 793.241034 1026.358691 C789.381415 1012.606982 786.195868 998.660082 782.094549 984.984789 C779.357733 975.859301 775.700262 966.991991 772.066229 958.169360 C771.384833 956.515185 768.583319 954.370165 767.260321 954.668749 C765.337713 955.102465 762.938299 957.264696 762.350409 959.182787 C755.707098 980.856249 743.718084 1000.109667 734.661200 1020.682055 C729.442938 1032.535815 722.505926 1043.626879 716.493475 1055.140063 C713.928534 1060.051440 712.125311 1065.385424 709.325262 1070.144579 C700.326971 1085.438647 691.186346 1100.654833 681.787665 1115.705736 C674.884833 1126.759814 667.883124 1137.767504 658.578924 1147.111620 C654.249823 1151.459399 650.657049 1156.531542 646.454168 1161.016650 C644.130926 1163.496142 644.097723 1165.331957 645.264471 1168.661669 C652.203436 1188.463183 658.617743 1208.448412 666.207831 1229.372118 M636.207831 1289.372118 C632.874334 1275.436083 629.556708 1261.496142 626.201727 1247.565356 C624.234442 1239.395800 622.318915 1231.211352 620.182196 1223.085619 C616.948065 1210.788622 613.517157 1198.543505 610.218817 1186.263232 C608.720526 1180.684374 605.355047 1179.651659 598.578924 1180.785082 C593.127264 1181.696947 587.398993 1181.038134 581.795965 1180.937670 C576.547674 1180.843554 570.833807 1179.180346 566.184881 1180.751757 C561.273749 1182.411791 556.657782 1182.252123 551.900702 1182.301562 C544.810125 1182.374926 537.826483 1181.866381 530.698797 1180.712694 C518.857489 1178.795702 506.661688 1179.118944 494.624823 1178.343920 C486.567206 1177.825121 478.483099 1177.367113 470.489081 1176.297289 C457.628485 1174.576220 444.797674 1172.570483 432.019598 1170.314501 C419.978216 1168.188891 408.034125 1165.516772 396.022650 1163.213671 C387.053656 1161.493944 378.073309 1159.790087 369.041205 1158.465380 C365.442328 1157.937426 362.332464 1156.921191 365.817450 1163.470629 C376.159857 1182.908373 388.159491 1201.151171 401.499579 1218.554125 C407.966375 1226.990282 414.833807 1235.155566 421.977850 1243.027758 C432.813543 1254.968066 442.878607 1268.022265 455.386542 1277.933764 C474.372748 1292.978564 495.590399 1305.003588 517.810125 1315.014452 C532.235174 1321.513476 546.964667 1326.586596 563.051581 1326.377001 C565.714911 1326.342333 568.619452 1325.671679 571.002508 1326.489794 C583.189520 1330.674242 596.098700 1329.821703 608.536200 1332.255785 C617.895086 1334.087572 627.468329 1334.812548 636.933172 1336.122118 C640.829901 1336.661303 644.895086 1333.373217 644.202948 1330.013110 C641.548651 1317.130541 638.874579 1304.252123 636.207831 1289.372118 M569.207831 540.372118 C558.207831 518.949999 547.576239 497.327563 536.074286 476.178637 C528.789618 462.784106 519.778387 450.330370 512.446844 436.958544 C509.969549 432.440478 508.816473 434.214770 507.249334 436.441088 C502.740057 442.846117 498.564764 449.485400 494.201483 455.994433 C483.714789 471.638354 473.125921 487.214281 462.719183 502.911059 C457.717840 510.454394 452.225409 517.837084 448.479803 525.992602 C445.781195 531.868578 443.603949 537.073168 437.509466 540.422777 C434.403509 542.130053 432.337835 546.036303 430.252752 549.241747 C420.537176 564.177050 411.359076 579.479174 401.195135 594.098193 C396.492010 600.862963 396.330633 606.665819 400.165106 613.427172 C403.209173 618.794848 405.732245 624.456103 408.729193 629.852343 C417.154974 645.023363 425.591009 660.191088 434.240423 675.235033 C442.757513 690.048754 451.445990 704.766161 460.252875 719.409594 C463.979437 725.605883 465.486029 725.740404 469.270331 720.232592 C483.481390 699.548998 500.160467 681.017260 518.056708 663.518481 C519.723456 661.888598 521.475897 660.326342 522.985418 658.559252 C534.323065 645.286425 545.783026 632.111254 556.816229 618.588671 C560.525213 614.042528 565.673407 608.550463 565.618719 603.540575 C565.531805 595.627123 569.656561 592.926440 575.076239 590.655443 C581.595526 587.923754 584.049383 583.123095 584.215887 576.537768 C584.354803 571.033251 583.881659 566.051562 580.410711 561.067919 C576.220770 555.052050 573.541327 547.984423 569.207831 540.372118 M251.207831 654.372118 C248.874212 654.372118 246.406683 653.872607 244.229559 654.456347 C233.281317 657.391772 222.003729 657.547167 210.857245 658.206225 C198.568060 658.932909 186.198309 658.182787 173.872503 658.463427 C168.803167 658.578661 163.309393 661.318163 158.786078 660.062792 C146.346258 656.609789 133.902411 659.409472 121.530462 658.392626 C118.475775 658.141650 117.269476 658.868944 119.010565 662.308520 C121.927191 668.069994 124.059515 674.225634 126.920599 680.018481 C133.894720 694.139086 141.922430 707.804613 147.938055 722.311816 C152.477362 733.258349 157.133612 740.164843 170.502630 743.045458 C190.818060 747.422900 211.193182 751.449633 231.716253 754.010302 C245.732733 755.759203 259.923529 756.668261 274.030096 758.188769 C287.995550 759.694140 302.118475 760.103564 316.179144 760.229174 C325.227728 760.309862 334.237250 760.150561 343.413275 758.834276 C356.572088 756.946459 370.131415 758.417773 383.547796 756.618090 C393.475042 755.286669 403.651068 756.607470 413.719061 754.545458 C422.636786 752.718920 424.040472 751.190356 420.201849 742.971850 C412.114081 725.656176 404.725775 707.961840 395.687323 691.156054 C385.863226 672.889330 378.906073 653.070605 366.240790 636.323534 C362.805365 631.781054 356.508368 628.858691 351.275335 630.433276 C345.968573 632.030077 340.892523 634.403735 335.572333 635.942919 C314.525213 642.031786 293.343084 647.525317 271.559515 650.449023 C265.378119 651.278612 259.321600 653.038866 251.207831 654.372118 M191.207831 506.372118 C185.760931 506.965014 180.329046 502.551073 174.835638 506.326342 C174.442938 506.596239 173.594427 506.244189 172.968084 506.126757 C162.764105 504.213793 152.555243 502.324877 142.361273 500.359057 C136.821356 499.290575 131.266424 498.254198 125.789984 496.910815 C114.614081 494.169482 103.389959 491.556567 92.365301 488.285448 C79.931708 484.596361 66.644964 483.718920 55.178778 476.622485 C52.540594 474.989672 49.880560 476.256762 50.078802 480.851855 C50.588202 492.655688 54.670721 503.583666 57.694525 514.750658 C60.845770 526.388232 65.324530 537.696215 67.964911 549.431200 C69.553900 556.493578 73.598944 560.699023 79.535101 562.150072 C90.850653 564.915453 102.423163 566.926073 114.003729 568.239062 C130.388861 570.096728 146.878607 572.150317 163.322333 572.139086 C196.785467 572.116015 230.348456 574.534716 263.674505 568.524950 C279.683050 565.638110 295.979071 564.332201 312.154242 562.388110 C320.771307 561.352343 322.062811 559.365649 318.263006 551.481737 C311.698431 537.861498 304.716498 524.439745 298.308905 510.747973 C296.028265 505.874804 292.871283 503.715258 287.707220 504.390917 C283.305731 504.966723 278.945868 506.040453 274.531927 506.309862 C260.820990 507.146532 247.093451 508.219286 233.371771 508.225756 C219.984076 508.232104 206.595892 507.038866 191.207831 506.372118 M391.207709 388.372057 C389.794378 390.452013 388.536444 392.660021 386.943792 394.592089 C370.964544 413.976794 354.904974 433.295092 338.925604 452.679735 C333.419867 459.358691 328.435248 466.509692 322.518255 472.790942 C319.145819 476.370898 320.304999 478.857470 322.188910 482.084887 C328.292792 492.541552 334.144720 503.149706 340.440375 513.488329 C343.558050 518.608080 347.417059 523.278735 350.977606 528.125414 C352.242010 529.846728 353.438910 530.928149 355.241644 528.394701 C365.506659 513.968920 376.067938 499.750414 386.156073 485.203173 C397.249823 469.205370 407.899847 452.900317 418.817206 436.779345 C433.842474 414.592455 446.734076 391.143542 459.783514 367.786730 C462.740057 362.494982 463.551581 356.937975 460.151434 351.665453 C454.531561 342.950610 448.412298 334.556933 442.832220 325.818041 C441.610541 323.904711 441.364203 322.121142 438.349310 322.235949 C435.322699 322.351122 433.683661 323.493151 432.159979 325.949206 C424.584662 338.158922 416.949896 350.334460 409.132025 362.389818 C403.660467 370.827257 397.860907 379.052233 391.207709 388.372057 M528.207831 687.372118 C526.874579 684.598803 525.023993 681.947192 524.336493 679.022021 C523.442938 675.220385 522.116278 675.483935 519.876288 677.712450 C514.453924 683.107226 508.768622 688.273119 503.720770 693.999804 C497.830633 700.682665 496.200506 707.798510 501.063055 716.460497 C510.267645 732.858080 518.524725 749.785448 527.307928 766.422655 C530.631170 772.717699 534.346747 778.804980 537.837469 785.012743 C541.324042 791.212694 546.078680 797.100878 547.808417 803.766527 C549.322577 809.601610 554.492987 812.183031 556.322333 817.271166 C556.470770 817.684496 559.552557 817.860400 560.103338 817.188769 C567.802069 807.802782 575.484930 798.388110 582.676581 788.615893 C584.039862 786.763720 584.369696 782.732348 583.285956 780.728930 C576.359442 767.922655 568.996649 755.347948 561.601629 742.800585 C550.881659 724.611742 540.013006 706.510668 528.207831 687.372118 M330.207831 361.372118 C339.679876 374.235461 345.689764 389.293017 356.106512 401.612353 C361.324896 407.783678 360.962469 407.843676 366.777655 403.050829 C370.951117 399.611010 370.768377 395.433764 370.010931 391.438586 C369.286444 387.617052 367.047430 384.046923 365.270453 380.467455 C359.923529 369.696520 354.449042 358.988879 349.118597 348.209887 C348.646429 347.255053 348.860541 345.960680 348.755926 344.824084 C350.127997 345.228136 351.611151 345.433276 352.828680 346.113818 C353.514715 346.497240 353.740179 347.677660 354.211249 348.476488 C360.206122 358.642138 366.029730 368.915881 372.318304 378.896715 C374.159125 381.818163 377.326727 383.903490 379.886175 386.372179 C381.897406 384.134875 383.892889 381.883288 385.926703 379.666796 C386.825995 378.686755 388.392889 377.900317 388.619574 376.810229 C389.074286 374.623949 389.667914 371.821520 388.717230 370.089953 C380.960394 355.963061 372.572333 342.178881 364.969549 327.972887 C360.187689 319.037951 356.374457 309.580065 352.226263 300.312304 C349.462591 294.137743 346.950506 287.850329 344.162420 281.687365 C343.304022 279.790270 341.906317 278.137072 340.755560 276.372118 C339.239691 277.771838 337.514593 279.004687 336.241888 280.598559 C328.151678 290.730639 323.526922 303.245165 313.631415 312.260668 C309.192938 316.304369 308.333685 322.869128 311.300360 328.241869 C317.163885 338.860949 323.857489 349.021776 330.207831 361.372118 M409.207831 878.372118 C412.834906 882.313158 417.298529 885.790697 422.618841 884.165331 C429.692572 882.004320 436.715155 882.590502 443.797674 882.363573 C448.918036 882.199511 449.002752 882.115526 446.187445 877.061327 C442.269720 870.027636 437.664129 863.321947 434.339911 856.026171 C429.760199 845.975268 426.254217 835.441332 422.013739 825.228197 C415.534979 809.624804 409.240912 793.918139 401.957098 778.691210 C399.719061 774.012621 397.994696 767.538012 391.177191 766.390795 C382.432684 764.919115 373.658880 766.442675 364.910223 766.550341 C358.409979 766.630175 357.298163 769.450732 360.220160 775.557055 C369.383001 794.705492 378.639349 813.809618 387.761908 832.977221 C389.474432 836.575243 390.547064 840.476855 392.243109 844.084032 C397.479437 855.220141 402.874457 866.281664 409.207831 878.372118 M507.207831 820.372118 C508.149725 821.314013 509.464667 822.088549 509.974920 823.224413 C514.137518 832.487597 517.979559 841.897997 522.286444 851.091479 C524.164862 855.101122 526.217108 855.127123 529.673163 851.879076 C532.098700 849.599169 534.460760 847.243334 536.738348 844.815478 C541.107000 840.158373 546.794012 836.484057 548.211249 829.590624 C549.701483 822.344286 543.959295 818.006884 541.240301 812.497362 C537.002264 803.909472 532.576483 795.397387 527.836981 787.077196 C519.535467 772.503710 510.698797 758.231860 502.556952 743.572069 C498.221991 735.767504 495.163397 727.315844 490.723456 719.470507 C488.160467 714.941576 486.499823 715.456469 483.668036 717.983446 C480.690863 720.640185 477.581976 723.303637 475.242254 726.487231 C470.831122 732.489184 469.013617 739.024950 472.991522 746.206835 C475.982000 751.606127 478.895209 757.069872 481.455389 762.681689 C488.482000 778.084276 495.334295 793.566820 502.184393 809.049242 C503.677313 812.423022 504.874334 815.927782 507.207831 820.372118 M681.207831 920.372118 C678.621649 924.291430 676.007391 928.192431 673.455633 932.133959 C667.883368 940.741015 664.259344 950.057909 668.970282 959.916064 C674.692938 971.891405 681.567938 983.313036 687.842352 995.028735 C695.422430 1009.182177 702.861883 1023.410815 710.440008 1037.565234 C712.184393 1040.823778 714.451727 1040.498827 716.015448 1037.495776 C720.855047 1028.201708 725.127752 1018.590014 730.393622 1009.551928 C732.398504 1006.111132 732.317694 1004.272143 730.328192 1001.045214 C725.298651 992.888232 720.679999 984.459154 716.248846 975.955614 C707.557196 959.276049 699.055731 942.496386 690.593573 925.698778 C688.777655 922.093920 687.947333 917.598437 681.207831 920.372118 M197.207831 488.372118 C190.637762 472.468676 184.110174 456.547289 177.482245 440.667895 C173.102850 430.175951 169.185614 419.421740 163.867621 409.419787 C161.169745 404.345629 156.566473 398.941088 151.505560 396.791186 C144.449896 393.793993 136.186957 393.496203 128.387030 392.439440 C122.334417 391.619311 120.551703 393.795336 122.537542 399.608935 C124.820013 406.291369 127.105536 413.061510 130.304999 419.325976 C141.391546 441.032030 152.797796 462.576464 164.240790 484.098193 C169.933417 494.804980 170.033514 494.941210 180.625433 497.640673 C184.342474 498.588061 188.409247 498.355028 192.314398 498.332568 C200.065497 498.288012 200.898749 496.920702 197.207831 488.372118 M586.207831 767.372118 C587.541083 768.816820 589.237616 770.067431 590.135077 771.745287 C592.245672 775.692065 593.894110 775.422411 596.255194 771.912524 C599.956854 766.409838 603.777411 760.961840 607.934149 755.802172 C609.800604 753.485277 610.449286 752.495409 608.539618 749.371874 C603.237372 740.700976 599.297918 731.204638 594.115545 722.451342 C586.962713 710.370165 579.246405 698.618334 571.618719 686.824145 C565.152655 676.826098 558.485174 666.957934 551.878485 657.051440 C547.338934 650.245043 545.546454 650.060351 539.880438 655.700243 C538.700995 656.874438 537.702459 658.345629 536.318670 659.178759 C530.899725 662.440844 531.545233 667.834521 532.435858 672.448901 C533.286688 676.855273 535.815497 681.009081 537.980780 685.074633 C541.910223 692.453173 546.046942 699.724413 550.223944 706.967211 C556.891424 718.527758 563.631903 730.046557 570.400458 741.548510 C575.286932 749.852099 580.268622 758.099535 586.207831 767.372118 M325.207953 790.372118 C337.541205 816.927904 350.197333 843.341723 361.982733 870.138476 C364.954535 876.895800 369.254461 879.454272 375.720526 881.033984 C382.439398 882.675463 388.664740 883.353197 395.409613 880.601733 C398.773260 879.229784 398.543646 878.916064 397.101751 876.127367 C390.297308 862.968188 383.609564 849.739794 377.261542 836.355273 C367.884955 816.585253 358.852362 796.652270 349.625555 776.810961 C347.209540 771.615404 344.218817 767.402880 337.293036 768.272875 C333.027289 768.808886 328.638983 768.336718 324.306463 768.380297 C317.485052 768.449023 316.633124 769.869311 319.247259 776.427782 C320.957953 780.719652 322.558172 785.055834 325.207953 790.372118 M123.207831 484.372118 C129.743963 492.020434 139.291327 492.309252 148.061346 494.234423 C151.121893 494.906420 154.531439 493.989672 157.781561 493.798388 C156.590277 490.747240 155.482123 487.660204 154.183783 484.655321 C152.962713 481.829638 151.565741 479.078661 150.203924 476.315722 C138.210516 451.984545 125.814642 427.841051 114.369208 403.255053 C108.395575 390.423022 96.800848 387.926256 85.279242 384.832873 C84.616400 384.654894 79.227484 385.470324 80.188910 389.905260 C80.656927 392.063647 80.589056 394.389086 81.340155 396.426379 C84.852728 405.952502 88.382879 415.480151 92.255804 424.863207 C96.715277 435.667284 101.800360 446.216601 106.130682 457.069506 C110.014837 466.804247 114.570624 475.994189 123.207831 484.372118 M444.207831 851.372118 C447.741034 858.238695 451.034247 865.244921 454.912542 871.910693 C456.748846 875.066820 459.212347 878.903002 462.276556 880.034472 C466.088568 881.442065 470.821966 880.502978 475.142279 880.280810 C476.230292 880.224779 477.179754 878.801684 478.330145 878.410937 C485.267401 876.054369 485.212225 876.123949 482.224188 869.332201 C477.993475 859.715990 473.586859 850.249560 468.466009 841.008349 C462.679754 830.566698 459.330023 818.806078 454.093939 808.020556 C447.360541 794.150927 439.742865 780.726733 434.016791 766.344652 C433.020819 763.842821 429.424505 760.587694 427.198309 760.712206 C421.363348 761.038012 415.614569 763.009447 409.866888 764.465136 C409.597601 764.533373 409.627997 765.955492 409.592596 766.750292 C409.268377 774.033007 414.218573 779.497362 416.360296 785.948046 C423.657904 807.928271 431.806830 829.603075 444.207831 851.372118 M582.207831 685.372118 C592.874579 702.246386 603.520575 719.133715 614.217840 735.988451 C618.360907 742.515795 618.312567 742.418871 622.263250 736.128344 C623.626776 733.957079 625.950262 732.381884 627.276678 730.195483 C629.944647 725.797533 631.708807 721.345873 628.925116 715.976733 C622.119452 702.850146 616.138250 689.281420 609.009100 676.340380 C599.134100 658.414233 588.474920 640.920946 578.226874 623.198778 C574.634344 616.985888 570.188788 616.308642 565.814276 621.876757 C563.127264 625.296557 561.448797 629.546191 558.596502 632.788866 C555.246649 636.596972 555.582098 640.392748 557.294989 644.371508 C558.634100 647.481615 560.422430 650.416064 562.186834 653.321825 C568.486639 663.696459 574.861395 674.025683 582.207831 685.372118 M270.207831 771.372118 C270.207831 771.039843 270.348944 770.527758 270.187689 770.401171 C260.779364 763.019579 249.986029 760.897997 238.540594 763.199877 C231.648138 764.585863 231.709540 765.205736 234.832464 771.975024 C238.565863 780.067187 242.446722 788.091112 246.200750 796.173998 C254.612250 814.285815 262.779974 832.515063 271.496527 850.478197 C274.173163 855.994311 275.550848 862.221972 280.957586 866.502734 C287.804022 871.923632 295.466131 872.420214 303.495428 872.378954 C306.299017 872.364428 306.979315 871.193285 305.605047 868.767626 C297.962347 855.278368 293.932806 840.359789 288.813421 825.887621 C285.424017 816.305834 282.758978 806.470019 279.601751 796.802782 C276.928900 788.618456 274.015082 780.512621 270.207831 771.372118 M171.207709 398.372118 C171.011053 399.508776 170.319037 400.850268 170.691595 401.751574 C176.448797 415.676195 183.118963 429.277209 188.008124 443.493090 C193.863226 460.517382 202.174627 476.290087 210.389715 492.132372 C212.125677 495.480151 216.015326 499.690844 219.192938 499.940844 C228.835150 500.699023 238.769476 501.733324 248.229803 498.258959 C249.037909 497.962206 249.775091 495.997973 249.627997 494.935473 C249.428290 493.493334 248.510199 492.052172 247.612982 490.819872 C228.695624 464.837694 214.363470 436.151903 199.164862 408.004320 C196.926336 403.858507 194.057440 401.470873 190.309149 400.551440 C184.764105 399.191271 178.922918 399.038744 171.207709 398.372118 M436.207831 1127.372118 C436.207831 1126.373339 436.526434 1125.235644 436.160345 1124.396532 C429.641180 1109.449145 422.867743 1094.610400 416.518866 1079.591967 C412.686834 1070.526781 405.021429 1067.421557 396.438421 1065.709154 C392.071844 1064.837939 386.435370 1063.121996 383.352240 1065.013842 C380.133490 1066.988695 382.237127 1072.478930 384.126654 1076.372362 C385.054999 1078.285204 384.821234 1080.739428 385.642157 1082.730761 C389.041937 1090.977831 393.352362 1098.917528 396.026556 1107.381518 C401.918402 1126.028612 413.073187 1141.745287 423.111151 1158.080859 C425.437323 1161.866381 429.452215 1163.974779 434.383856 1164.512987 C439.938910 1165.119555 445.370306 1166.834887 450.869574 1168.001879 C451.731146 1168.184740 452.667059 1168.016894 453.568670 1168.011278 C453.524481 1166.874316 453.812323 1165.591112 453.385809 1164.622607 C448.053412 1152.512499 442.617376 1140.448168 436.207831 1127.372118 M338.207953 849.372118 C334.207953 840.727221 330.090033 832.134569 326.233221 823.426195 C318.896917 806.860888 311.462103 790.330736 304.603338 773.567065 C302.380926 768.135790 298.446356 766.919604 293.676825 766.428759 C290.717352 766.124071 287.695379 766.254076 284.711371 766.396654 C278.462591 766.695238 277.476996 768.343676 279.791083 774.929735 C284.172796 787.400194 288.842596 799.772143 293.056463 812.298144 C296.195379 821.628588 300.311712 830.558031 303.267035 840.008349 C306.261908 849.585985 311.211249 858.750414 316.535345 867.332323 C320.066229 873.023485 325.687445 877.238207 333.568792 876.480517 C337.033880 876.147387 340.631048 876.857348 344.133856 877.341723 C347.567084 877.816576 348.871039 875.672900 347.921942 873.266527 C344.995062 865.845629 341.488959 858.653246 338.207953 849.372118 M662.207831 967.372118 C662.283026 963.578417 660.577948 963.303637 658.112372 965.513964 C651.802557 971.171068 648.937323 978.720873 646.024725 986.478442 C643.578192 992.994677 644.375799 998.764696 647.330145 1004.403124 C654.795233 1018.650683 662.477118 1032.786669 670.236883 1046.876757 C675.623114 1056.656908 681.218084 1066.324511 686.880438 1075.947802 C687.861639 1077.615038 689.645819 1078.809985 691.058905 1080.223070 C692.000555 1078.714037 692.918036 1077.189257 693.888006 1075.698656 C697.985907 1069.400072 702.298651 1063.229174 706.122625 1056.769091 C707.997381 1053.602221 709.134588 1050.759692 705.841620 1046.541918 C699.751043 1038.740282 694.793036 1029.947192 690.133124 1021.158617 C680.881659 1003.709765 672.152655 985.983691 662.207831 967.372118 M668.208075 1117.372240 C671.730780 1111.849413 674.652411 1105.798998 678.922674 1100.932055 C684.775213 1094.262011 682.964911 1087.510912 679.860174 1081.267260 C673.809149 1069.098559 666.835272 1057.387133 660.201483 1045.510058 C653.563788 1033.626025 646.962469 1021.720385 640.161200 1009.930102 C637.691473 1005.648485 634.507879 1005.257860 631.008856 1008.693163 C629.253241 1010.416674 627.959540 1012.689745 626.749823 1014.876391 C621.706122 1023.992968 617.320868 1032.732714 624.072088 1043.513354 C632.760565 1057.387621 640.258856 1072.010058 648.195135 1086.351610 C654.209051 1097.219530 659.060858 1108.772143 668.208075 1117.372240 M496.207831 1149.372118 C498.874334 1155.251269 501.356512 1161.223559 504.262518 1166.981860 C506.885809 1172.180468 512.001288 1175.053515 517.169256 1175.982592 C521.610174 1176.780932 526.548651 1175.168505 531.171454 1174.176073 C531.801581 1174.040697 532.560614 1171.063647 532.104315 1169.829882 C526.025213 1153.398852 519.932684 1136.967455 513.426092 1120.702807 C510.118719 1112.435107 504.947577 1104.806078 502.445135 1096.347948 C498.553045 1083.193896 492.618231 1076.562670 474.731512 1076.394335 C461.949286 1076.273974 461.942450 1076.368334 467.060492 1088.198412 C467.305487 1088.764696 467.931708 1089.162890 468.191717 1089.726366 C477.211249 1109.268481 486.207831 1128.820971 496.207831 1149.372118 M550.207831 1113.372118 C547.541083 1107.162646 544.524725 1101.076830 542.279120 1094.718676 C537.263250 1080.518969 526.844061 1074.314135 513.305243 1078.584399 C511.110418 1079.276415 506.527899 1080.416552 508.232733 1085.063402 C509.924872 1089.676562 511.736883 1094.249682 513.636542 1098.781786 C523.135077 1121.444018 532.415350 1144.204394 542.398260 1166.652026 C544.815497 1172.087694 548.791815 1177.657763 556.621893 1176.380419 C560.992499 1175.667406 565.426092 1174.278612 569.743231 1174.557909 C575.609442 1174.937182 574.806708 1171.034838 574.038885 1168.312914 C572.631170 1163.322436 570.963446 1158.097460 568.064032 1153.894579 C559.874090 1142.021654 554.453924 1129.001513 550.207831 1113.372118 M317.207831 404.372118 C320.874579 409.838427 324.565985 415.288256 328.202948 420.774218 C337.331244 434.543566 341.064276 434.878466 350.825262 422.754748 C354.819037 417.794298 355.047186 414.294909 351.968817 409.115221 C337.376166 384.562548 322.779852 360.011889 308.284735 335.401659 C304.671698 329.267443 304.569281 329.245531 298.347967 332.316881 C292.422064 335.242235 291.474676 342.031847 287.269964 345.924731 C282.991278 349.886156 284.099066 353.201159 286.268622 356.887865 C288.964911 361.469836 292.167303 365.750841 295.045477 370.229601 C302.131781 381.256457 309.157660 392.322069 317.207831 404.372118 M214.207831 417.372118 C217.269720 423.100634 219.806097 429.194567 223.488959 434.491259 C236.040960 452.543139 246.339300 472.051928 259.986151 489.426562 C267.897650 499.499438 268.069647 499.894579 280.450506 496.668383 C284.305243 495.663988 284.642157 494.320727 284.136053 491.637987 C283.565252 488.612719 282.954901 485.403979 281.475775 482.773241 C273.410834 468.428515 264.983587 454.288134 256.859198 439.976244 C251.051092 429.744860 246.014593 419.039721 239.682684 409.155199 C236.005804 403.415209 230.342352 399.584215 222.455633 400.214281 C217.699164 400.594347 212.956000 401.243273 210.669867 405.260363 C208.594061 408.907458 211.809149 412.379809 214.207831 417.372118 M426.207831 1077.372118 C431.541205 1090.483324 436.863226 1103.598925 442.211371 1116.704150 C446.861761 1128.099901 450.974920 1139.762621 456.400458 1150.777880 C460.226385 1158.545458 462.495917 1167.656908 473.140936 1170.871996 C477.824774 1172.286669 482.071356 1171.968066 486.466864 1172.246020 C492.525458 1172.629198 493.985174 1170.418017 491.569647 1164.811449 C486.332831 1152.656542 480.785956 1140.635424 475.389349 1128.548998 C469.491278 1115.339159 463.749945 1102.057543 457.693426 1088.920824 C453.246405 1079.275194 447.709173 1070.821947 434.945868 1072.308642 C433.457220 1072.481982 431.663275 1072.149584 430.358709 1071.425219 C424.456122 1068.147265 426.620917 1073.061327 426.207831 1077.372118 M362.207831 301.372118 C362.207831 301.705065 362.082831 302.108935 362.225653 302.360766 C372.324164 320.157030 382.333807 338.005236 392.624334 355.690111 C396.015448 361.517687 399.824652 361.427477 403.702459 355.809008 C405.813177 352.750597 407.030951 348.966296 409.496283 346.286425 C413.798285 341.609911 412.759955 336.911791 410.769598 331.968981 C409.736029 329.401903 408.713568 326.764513 407.223334 324.457873 C394.824896 305.268908 382.369940 286.115954 369.810614 267.032152 C366.509833 262.016772 362.785589 257.279955 359.252264 252.417895 C357.107000 249.465929 354.928412 249.801623 353.038031 252.577990 C348.817450 258.776232 349.063910 272.532641 353.797186 278.863146 C357.480414 283.789110 359.354193 289.233568 360.273626 295.195849 C360.498236 296.652697 361.541205 297.983385 362.207831 301.372118 M611.207831 616.372118 C606.874579 608.169848 602.674139 599.893359 598.164129 591.789477 C594.815741 585.772631 592.105047 585.852465 588.233954 591.849657 C586.554999 594.450487 584.473211 597.081225 583.820379 599.978930 C583.045721 603.416186 582.388006 607.765917 583.824286 610.653368 C588.654852 620.364916 595.154608 629.270190 599.711004 639.089403 C609.842352 660.921557 622.626288 681.120898 635.914862 701.062670 C637.490790 703.427660 639.050360 707.478686 640.885565 707.636889 C644.403631 707.939867 644.122137 703.997118 644.479559 701.205004 C644.579657 700.420458 645.858709 699.827929 646.498114 699.064745 C651.398260 693.215990 651.295721 687.110766 647.566717 680.701830 C643.041815 672.925097 638.596014 665.100878 634.221014 657.238818 C626.839667 643.974291 619.541083 630.663500 611.207831 616.372118 M736.207831 943.372118 C732.874334 935.103930 729.734198 926.751269 726.161932 918.587572 C720.984198 906.753832 715.642889 894.984301 710.000555 883.367480 C708.976874 881.259447 705.793768 878.393359 704.281561 878.748339 C701.950995 879.295458 699.222723 881.973803 698.372381 884.357836 C693.952459 896.748339 691.969305 909.141650 699.923895 921.218676 C703.135077 926.093920 705.611395 931.476977 708.180975 936.746386 C714.927313 950.582201 721.376776 964.565478 728.294500 978.313891 C730.808172 983.309618 734.282293 987.827074 737.401190 992.507738 C737.858954 993.194750 738.778143 993.574267 739.483954 994.095995 C739.725165 993.197802 740.095038 992.311083 740.177557 991.398608 C740.296698 990.078417 739.850165 988.613818 740.266424 987.429247 C742.815985 980.174609 747.923163 972.851610 747.538885 965.804613 C747.153387 958.741625 741.348700 951.972826 737.901922 945.083788 C737.760565 944.801440 737.443182 944.607348 736.207831 943.372118 M570.207831 1077.372118 C563.107977 1073.496020 556.508368 1079.833788 549.498358 1078.475268 C549.218573 1078.421068 548.195379 1079.946459 548.291327 1080.626269 C548.594061 1082.765429 549.179999 1084.878100 549.808172 1086.955126 C557.229559 1111.502856 567.543524 1134.809618 580.022528 1157.182421 C582.583319 1161.773608 585.109930 1166.386278 587.780584 1170.913378 C590.512274 1175.544482 595.547430 1175.424242 599.137030 1173.985155 C602.446356 1172.658495 605.342840 1169.677050 602.521063 1164.068896 C599.667792 1158.398608 599.994452 1151.220629 597.785711 1145.116625 C591.098944 1126.636401 583.918036 1108.333300 576.787420 1090.016772 C575.230536 1086.017382 573.083319 1082.247607 570.207831 1077.372118 M328.207831 439.372118 C323.981756 433.812792 319.568670 428.384203 315.569281 422.666308 C307.661322 411.360461 299.884588 399.959215 292.247870 388.468371 C288.294989 382.520556 285.033026 376.104784 280.952582 370.253405 C277.164251 364.820910 273.331000 365.055712 269.288641 370.291125 C264.522284 376.464342 264.598822 383.088915 268.922430 390.166857 C273.598578 397.822436 277.817328 405.755846 282.356756 413.496996 C290.042792 426.603930 297.564276 439.820360 305.714422 452.634814 C308.359442 456.793505 308.973456 465.151293 315.162054 463.674731 C319.535834 462.631396 322.574530 455.989184 326.207098 451.844652 C327.274237 450.627123 328.450628 449.484667 329.372992 448.165209 C331.177313 445.584154 330.644354 443.285815 328.207831 439.372118 M320.207831 1075.372118 C326.075995 1085.906908 332.194037 1096.312548 337.733954 1107.017138 C342.250799 1115.744799 346.561834 1124.644701 350.066961 1133.811205 C353.359930 1142.423022 360.158514 1145.884325 367.995794 1148.280566 C370.134588 1148.934374 372.918158 1148.849901 372.204413 1145.045458 C371.915716 1143.507494 371.821844 1141.881884 371.242254 1140.457690 C366.147284 1127.940722 360.757635 1115.540087 355.861761 1102.946825 C350.844916 1090.042651 343.989569 1077.797045 342.089667 1063.736376 C341.521429 1059.530932 340.793524 1053.763598 337.970404 1051.746752 C329.853827 1045.947802 320.137518 1043.050097 310.053900 1042.553515 C308.078070 1042.456225 306.437567 1043.469775 307.804388 1047.559740 C310.891180 1056.795702 315.765936 1064.927416 320.207831 1075.372118 M658.207831 1131.372118 C657.508124 1128.005785 657.462225 1124.320727 656.002264 1121.324999 C646.830633 1102.506640 637.569403 1083.723437 627.841375 1065.189135 C624.366278 1058.568285 619.984930 1052.267016 615.132635 1046.573901 C611.187079 1041.944750 605.280829 1044.120531 604.324286 1050.168749 C604.002020 1052.207323 604.780096 1054.549486 605.492010 1056.601122 C610.332098 1070.545458 615.090399 1084.523363 620.258856 1098.346972 C626.604559 1115.320605 633.447088 1132.108568 639.766424 1149.091479 C640.853827 1152.014696 641.034491 1153.012743 643.432684 1150.198656 C648.273749 1144.518236 653.273504 1138.973070 658.207831 1131.372118 M101.207831 588.372118 C101.914496 589.078783 102.635931 589.771654 103.325750 590.494311 C117.227728 605.057543 131.179022 619.574389 144.979803 634.232958 C147.638983 637.057299 147.394110 635.586596 148.700262 633.095751 C156.030707 619.114672 158.837591 603.809740 162.069403 588.670702 C163.433172 582.281908 161.367743 580.645556 154.786200 580.361986 C140.068426 579.727953 125.351874 579.065111 110.638861 578.332445 C109.111517 578.256518 107.608465 577.644945 106.099432 577.260790 C102.363836 576.309618 97.656073 574.456225 95.699652 578.510424 C94.827459 580.318285 98.563421 584.349901 101.207831 588.372118 M106.207831 473.372118 C99.541205 459.470751 92.979193 445.517992 86.176947 431.683153 C80.008001 419.136584 75.018500 406.222521 72.120550 392.495653 C71.367010 388.926440 69.684759 385.519091 68.171820 382.153002 C66.241522 377.858752 62.255194 375.965014 58.072699 376.556628 C53.212103 377.244067 54.200873 381.800402 54.223578 385.288073 C54.302801 397.427111 58.092230 408.889757 61.360418 420.335741 C65.765936 435.764086 71.148016 450.916552 76.235418 466.145800 C78.582342 473.171313 83.412542 477.992235 90.445501 480.323046 C94.274969 481.592211 98.256415 482.420214 102.195257 483.335375 C105.128119 484.017016 108.504217 487.548022 110.772406 484.193529 C111.624090 482.934130 108.330633 478.862475 106.902533 476.085375 C106.757391 475.803149 106.443426 475.607714 106.207831 473.372118 M326.207831 629.372118 C333.826727 627.705492 341.477118 626.167651 349.053412 624.325976 C353.947821 623.136278 354.062567 621.791552 351.011297 618.095873 C338.739691 603.233080 321.867743 594.541064 306.070013 584.452318 C299.726751 580.401293 297.722235 581.648485 296.218695 589.343554 C293.513739 603.188280 290.900580 617.051073 288.197821 630.896166 C286.654486 638.802660 286.726996 638.684740 294.927191 636.736620 C304.958441 634.353075 315.108954 632.470995 326.207831 629.372118 M211.207831 760.372118 C201.825262 760.857470 200.637152 762.439989 204.264959 771.249071 C209.182806 783.190600 214.633001 794.912279 219.613348 806.829027 C224.711737 819.028490 229.066351 831.558276 234.594183 843.552904 C239.155584 853.450365 243.300604 864.835497 258.129950 862.444750 C258.851263 862.328539 259.700262 863.499560 260.566351 863.661791 C261.658148 863.866259 262.828802 863.649462 263.965521 863.614428 C263.892401 862.713061 264.054632 861.708300 263.710516 860.926073 C259.251654 850.789599 254.667792 840.707934 250.223211 830.565234 C246.150213 821.270434 241.496283 812.148730 238.383490 802.534716 C234.264593 789.813402 227.863714 778.241381 222.166327 766.302904 C220.436468 762.678026 218.051825 759.534838 211.207831 760.372118 M752.207831 903.372118 C747.541083 892.681811 742.632391 882.088549 738.289618 871.268236 C735.201239 863.572802 733.224920 855.429369 730.104803 847.748949 C727.247381 840.714526 719.954168 840.015673 715.481512 846.200976 C711.031805 852.354052 710.781317 859.527758 713.323553 866.294726 C716.231512 874.036059 720.229559 881.366259 723.720038 888.890673 C728.890204 900.036181 733.861151 911.277880 739.238592 922.321947 C743.419256 930.908129 748.008368 939.300463 752.603827 947.675829 C753.713202 949.697436 756.204168 951.502489 757.337469 948.056933 C759.355780 941.920946 762.254217 935.322436 761.619940 929.247729 C760.741034 920.829638 757.760565 912.377367 752.207831 903.372118 M226.207831 845.372118 C221.527167 833.358080 217.129706 821.223803 212.094427 809.360277 C205.737616 794.382983 198.077215 779.907397 192.604315 764.632983 C190.498236 758.754565 186.852850 756.523730 182.492987 754.527148 C178.050970 752.492968 173.068426 751.577807 168.262396 750.423632 C165.694647 749.806933 163.400946 750.472948 164.268622 753.851855 C165.029120 756.813158 166.095892 759.744189 167.423041 762.497973 C168.764959 765.282763 170.745184 767.753466 172.182928 770.499560 C180.899725 787.148363 189.655218 803.778857 198.147162 820.542406 C201.192572 826.554613 203.331488 833.021044 206.263739 839.096972 C209.537542 845.880663 214.687811 851.132860 221.569037 854.212206 C223.292303 854.983446 225.901312 853.775194 228.103216 853.476733 C227.471502 851.441820 226.839667 849.407030 226.207831 845.372118 M385.207831 1148.372118 C386.804754 1151.406420 387.644964 1154.510302 392.531805 1154.631396 C397.004217 1154.742113 401.396795 1157.137255 405.882147 1158.304125 C407.032538 1158.603319 408.400702 1158.064745 409.668890 1157.911059 C409.322455 1156.538622 409.199896 1155.055102 408.585150 1153.815722 C407.073675 1150.768236 405.245672 1147.878954 403.704657 1144.844897 C397.838080 1133.294482 391.336737 1122.001147 386.391668 1110.065356 C380.734686 1096.410693 375.169500 1082.663866 372.024359 1068.034594 C370.326605 1060.137987 363.735785 1056.303881 355.585028 1056.372118 C349.572455 1056.422411 349.736273 1056.372607 351.731756 1062.932665 C360.531683 1091.861864 372.543646 1119.548632 385.207831 1148.372118 M397.207831 262.372118 C390.207831 253.314989 383.246527 244.227343 376.174872 235.226549 C374.769598 233.437853 372.334906 230.356005 371.427801 230.694201 C369.212225 231.520556 367.302679 233.780871 365.833929 235.861986 C363.187811 239.611620 363.034369 243.422533 366.086737 247.366991 C368.745428 250.802660 370.627386 254.833422 373.226996 258.322314 C381.568426 269.516222 390.720282 280.165392 398.326727 291.828661 C404.277899 300.953661 407.790960 311.393969 415.708563 319.676745 C418.871649 322.985827 421.345770 322.697131 423.424627 321.863329 C430.356634 319.082934 432.071356 308.222460 427.088446 302.217394 C424.861761 299.533922 422.814642 296.698839 420.738592 293.893481 C413.216253 283.728625 405.716253 273.547289 397.207831 262.372118 M204.207709 645.372118 C198.874457 634.922900 193.855292 624.296435 188.099920 614.085009 C184.104071 606.995287 179.240912 600.371386 174.464544 593.756396 C172.635199 591.222948 171.156439 591.317797 170.091986 595.038134 C167.205755 605.125414 163.479315 614.973437 160.633978 625.070849 C158.683783 631.991869 157.584906 639.159106 156.243353 646.242235 C155.769232 648.745287 156.083807 650.512621 159.653753 650.458666 C173.641546 650.247118 187.635077 650.425829 201.623602 650.243578 C202.497381 650.232226 203.346991 648.372118 204.207709 645.372118 M235.207831 646.372118 C246.157904 646.859545 256.806463 645.152514 267.410223 642.496752 C271.076727 641.578417 271.011542 640.626391 269.003607 638.144213 C260.771917 627.968676 252.725531 617.639330 244.324652 607.606249 C240.719305 603.300219 236.559637 599.419115 232.378241 595.648363 C229.527533 593.077685 226.596014 593.974901 226.223944 597.188036 C224.601385 611.199999 221.331854 625.016772 222.112616 639.312060 C222.623968 648.673876 222.216253 648.720019 231.635687 648.332445 C232.504706 648.296679 233.351019 647.705492 235.207831 646.372118 M288.207831 583.372118 C287.690619 581.705492 287.620672 579.035082 286.569281 578.566576 C283.786566 577.326220 280.595526 576.639086 277.534979 576.513720 C275.521551 576.431322 273.443670 578.299731 271.410223 578.268847 C262.738470 578.136889 254.457464 579.638354 246.178167 582.246508 C238.913275 584.535204 238.550116 584.231249 242.726874 589.809985 C249.578680 598.961596 256.652777 607.950487 263.780218 616.890551 C267.593084 621.673388 271.676581 626.244189 275.755438 630.805712 C276.142157 631.238207 278.050238 631.121386 278.110785 630.919115 C282.568548 615.982104 288.062933 601.263720 288.207831 583.372118 M64.207831 461.372118 C62.207831 454.868578 60.020086 448.415942 58.243475 441.851977 C53.076239 422.760607 48.767157 403.490221 46.091498 383.859911 C45.604925 380.288988 43.385687 376.987902 42.354071 373.449206 C40.996283 368.792101 37.405951 367.838976 33.659125 368.699755 C32.699042 368.920275 32.160223 373.209765 32.310125 375.573962 C32.653265 380.983935 33.618109 386.351183 34.188666 391.750780 C34.933417 398.798327 35.225653 405.907885 36.279120 412.905505 C38.016546 424.447558 40.233099 435.917101 42.195013 447.426195 C42.940985 451.802294 42.949774 456.402758 44.347723 460.545580 C46.396063 466.615893 52.453314 468.291552 57.740301 470.256274 C60.829291 471.404101 64.348211 471.394945 67.673773 471.906176 C66.851874 468.728197 66.029852 465.550097 64.207831 461.372118 M488.207831 421.372118 C487.541083 417.668139 487.395331 413.771471 486.109198 410.296679 C482.387640 400.241625 478.467474 390.240588 474.105047 380.450243 C471.697943 375.048144 467.242132 374.467211 464.712835 379.012438 C458.581244 390.030688 452.849554 401.276049 447.209173 412.556078 C446.638373 413.697863 447.257147 416.339098 448.252386 417.162768 C450.078192 418.673937 452.519720 419.588549 454.839544 420.329394 C463.636297 423.138598 472.510077 425.706469 481.310980 428.503222 C489.386053 431.069323 489.360907 431.148058 488.207831 421.372118 M423.207831 534.372118 C422.070013 533.900927 420.806097 533.613085 419.814276 532.929980 C410.870306 526.770678 401.338690 522.211962 390.190130 522.418261 C385.171576 522.511034 385.360785 523.448656 386.046454 529.346728 C387.976263 545.944628 395.720648 561.292528 396.263250 578.157030 C396.287420 578.908861 397.009100 580.108813 397.608221 580.251757 C398.354437 580.429980 399.922430 579.913256 400.087225 579.375292 C403.821844 567.195483 412.861273 558.074877 418.747503 547.130297 C420.821722 543.273730 424.446966 540.287157 423.207831 534.372118 M140.207831 643.372118 C135.980902 638.478564 131.988348 633.356493 127.481024 628.736498 C116.346014 617.322802 104.975042 606.139452 93.698919 594.863451 C91.114813 592.279345 88.586615 589.634936 85.904364 587.157152 C85.298773 586.597826 84.157538 586.618456 83.262884 586.372118 C83.033148 587.494067 82.350287 588.772509 82.671820 589.704027 C83.266791 591.427294 84.573553 592.888720 85.368597 594.561571 C91.963202 608.438891 98.436224 622.374804 105.109442 636.214037 C107.353949 640.868822 109.795599 646.268359 114.871161 647.753466 C123.643377 650.320116 132.783026 652.308153 141.901312 648.403246 C143.949896 647.525805 144.026800 647.705492 140.207831 643.372118 M426.207709 509.372118 C425.541083 508.650317 424.621527 508.039843 424.246649 507.189379 C420.153875 497.907885 416.327948 488.503832 412.024481 479.322802 C410.362250 475.776781 406.263861 475.267626 404.229559 477.842943 C400.286200 482.835131 396.407904 487.881640 392.619574 492.992480 C389.240057 497.552050 385.773993 502.081103 382.850897 506.928026 C381.733832 508.780443 380.288763 512.315356 385.044134 512.348803 C394.660467 512.416430 403.241644 516.473070 412.092230 519.374316 C417.034002 520.994433 421.621161 523.669970 426.496283 525.535326 C428.077826 526.140307 430.065497 525.683520 431.867621 525.712450 C431.389715 524.340990 430.965155 522.948046 430.423285 521.602221 C429.046087 518.180956 427.616522 514.780810 426.207709 509.372118 M219.207831 592.372118 C220.041449 583.909472 219.000677 582.429247 211.956732 582.383959 C204.000433 582.332690 196.043280 582.325976 188.087103 582.385912 C181.016424 582.439135 181.143011 582.437182 184.045965 589.247118 C190.502997 604.394457 198.490667 618.658495 208.218329 631.943774 C208.852240 632.809740 209.636786 633.565234 210.351385 634.372118 C210.970160 633.469652 211.993475 632.628344 212.140814 631.654467 C212.948309 626.315844 212.862738 620.745043 214.369818 615.632860 C216.529974 608.304613 218.033514 600.985155 219.207831 592.372118 M422.207831 475.372118 C423.541205 478.473681 424.813177 481.603319 426.219305 484.671557 C430.185980 493.327318 434.151678 501.984545 438.258124 510.574023 C439.022528 512.172900 440.057318 515.811938 442.473211 512.887987 C448.927069 505.076708 454.916083 496.869067 460.848211 488.644701 C463.786932 484.570238 462.611029 482.219408 457.344183 480.370653 C452.124579 478.538378 447.032293 475.880419 441.659613 475.066210 C435.268622 474.097704 428.995550 470.017016 422.207831 475.372118 M431.207831 464.372118 C438.461737 466.959276 445.682074 469.646166 452.982611 472.094530 C457.023626 473.449633 459.641791 471.484423 458.105047 468.179735 C452.905829 456.998705 447.475531 445.911547 441.691107 435.023547 C439.621893 431.128649 436.109930 431.173632 432.918036 434.774401 C429.762518 438.334154 426.754461 442.116869 424.272894 446.164233 C417.608343 457.034472 418.316351 459.238207 431.207831 464.372118 M462.207709 449.372118 C464.874457 454.887621 467.932562 460.256640 470.069281 465.970141 C471.478094 469.737109 472.646429 468.921801 474.685125 466.903612 C480.343817 461.301440 484.459540 454.690844 488.448065 447.816698 C490.470282 444.331347 490.306463 442.636156 487.501288 440.707568 C478.219061 434.325610 467.992376 430.046435 456.853216 428.490465 C451.756537 427.778551 450.690130 429.445299 452.893500 433.935778 C455.334295 438.910082 458.409125 443.573412 462.207709 449.372118 M365.207831 554.372118 C370.588080 563.085741 375.942328 571.815722 381.380804 580.492846 C382.081488 581.610644 383.219427 582.454394 384.154852 583.425097 C384.588080 581.823046 385.586493 580.132616 385.352362 578.634936 C384.534125 573.405077 383.433050 568.206713 382.177801 563.060351 C379.610907 552.535204 377.116034 541.979540 374.030951 531.603075 C373.297552 529.136278 371.001166 526.704272 367.329779 530.066576 C359.516058 537.222582 358.530340 541.201220 363.487250 550.689013 C363.905829 551.490282 363.975897 552.473437 365.207831 554.372118 M336.207831 581.372118 C334.569403 578.400317 333.241766 575.194018 331.218573 572.512499 C328.284979 568.624438 317.162909 570.165209 315.084540 574.637255 C314.800238 575.249071 315.566473 576.816576 316.285345 577.352465 C321.330511 581.112231 326.388250 584.875170 331.659735 588.302172 C334.089178 589.881396 337.009100 590.706347 339.706610 591.873339 C338.873602 588.706225 338.040716 585.539233 336.207831 581.372118 z"></path></svg>